PathFileType	4	(X/Y/Z)	/Users/itak/Documents/Research/Walk-IL/dataset/trc/00018_00004.trc
DataRate	CameraRate	NumFrames	NumMarkers	Units	OrigDataRate	OrigDataStartFrame	OrigNumFrames
100.000000	100.000000	4	54	mm	100.000000	345	552
Frame#	Time	RPSI			LPSI			L3			STRN			T10			C7			CLAV			RBAK			LBAK			LSHO			LUPA			LAEL			LAOL			LWPS			LFRA			LIFD			LHPS			LHTS			RSHO			RUPA			RAEL			RAOL			RWTS			RWPS			RFRA			RIFD			RHTS			RHPS			RBHD			LFHD			RFHD			LBHD			LHIP			RHIP			RASI			LASI			LKNE			LTHI			LANK			LTIP			LTOE			LMT1			LMT5			LHEE			RKNE			RTHI			RANK			RTIP			RTOE			RMT1			RMT5			RHEE			LWTS			*53			
		X1	Y1	Z1	X2	Y2	Z2	X3	Y3	Z3	X4	Y4	Z4	X5	Y5	Z5	X6	Y6	Z6	X7	Y7	Z7	X8	Y8	Z8	X9	Y9	Z9	X10	Y10	Z10	X11	Y11	Z11	X12	Y12	Z12	X13	Y13	Z13	X14	Y14	Z14	X15	Y15	Z15	X16	Y16	Z16	X17	Y17	Z17	X18	Y18	Z18	X19	Y19	Z19	X20	Y20	Z20	X21	Y21	Z21	X22	Y22	Z22	X23	Y23	Z23	X24	Y24	Z24	X25	Y25	Z25	X26	Y26	Z26	X27	Y27	Z27	X28	Y28	Z28	X29	Y29	Z29	X30	Y30	Z30	X31	Y31	Z31	X32	Y32	Z32	X33	Y33	Z33	X34	Y34	Z34	X35	Y35	Z35	X36	Y36	Z36	X37	Y37	Z37	X38	Y38	Z38	X39	Y39	Z39	X40	Y40	Z40	X41	Y41	Z41	X42	Y42	Z42	X43	Y43	Z43	X44	Y44	Z44	X45	Y45	Z45	X46	Y46	Z46	X47	Y47	Z47	X48	Y48	Z48	X49	Y49	Z49	X50	Y50	Z50	X51	Y51	Z51	X52	Y52	Z52	X53	Y53	Z53	X54	Y54	Z54	

346	3.45	-442.0259704589844	1055.620849609375	-192.8856353759766	-480.3269958496094	1050.326171875	-350.1747436523438	-461.9635314941406	1121.686767578125	-283.6414794921875	-226.340576171875	1306.328491210938	-321.6876831054688	-474.6052856445312	1265.823364257812	-291.2909545898438	-419.6714782714844	1530.771240234375	-307.878173828125	-264.243408203125	1434.396118164062	-320.1822509765625	-465.2947387695312	1395.298706054688	-222.4288787841797	-448.1092224121094	1490.900146484375	-404.7401733398438	-351.8701477050781	1495.520141601562	-488.0663146972656	-387.4110717773438	1372.087036132812	-566.1226806640625	-381.382080078125	1153.09912109375	-594.4024047851562	-436.3558044433594	1138.140380859375	-505.1853942871094	-359.6275939941406	886.0532836914062	-582.240478515625	-363.7547607421875	1037.48974609375	-601.0537719726562	-249.1619262695312	721.08056640625	-522.110595703125	-322.4939880371094	798.2339477539062	-582.0499877929688	-257.8618469238281	811.5042114257812	-554.6935424804688	-323.3430480957031	1513.064453125	-142.8851470947266	-328.8642578125	1441.117065429688	-69.52533721923828	-358.0956420898438	1174.172241210938	-35.20246505737305	-371.8692321777344	1143.106201171875	-129.7806243896484	-235.4095001220703	912.2120361328125	-69.16893005371094	-294.6266479492188	901.2616577148438	0.8343513011932373	-343.2510375976562	1099.68212890625	-18.85187149047852	-221.2721099853516	724.14208984375	-75.22818756103516	-204.5188446044922	801.4022216796875	-52.42821884155273	-256.5593566894531	800.684326171875	0.8866401314735413	-352.4018859863281	1706.888671875	-231.5910949707031	-177.4810485839844	1717.465209960938	-350.8063049316406	-178.6223449707031	1714.53466796875	-251.8794860839844	-358.6604309082031	1716.1181640625	-376.0567932128906	-416.5771789550781	946.3292236328125	-471.8277893066406	-302.546875	958.0203247070312	-118.0367431640625	-227.0952911376953	984.913818359375	-215.3025054931641	-286.3660583496094	991.7583618164062	-442.1493835449219	-336.10400390625	501.4252319335938	-428.0876159667969	-373.6628723144531	638.5007934570312	-460.8037719726562	-515.7560424804688	39.75173950195312	-387.6719970703125	-449.1665649414062	273.491943359375	-419.798095703125	-295.0694274902344	37.84197616577148	-326.0290832519531	-354.0631103515625	45.92099380493164	-308.3130493164062	-390.76611328125	36.07047653198242	-408.2529296875	-584.7244873046875	53.29034042358398	-333.6377258300781	-156.2861175537109	550.2998046875	-157.4424133300781	-240.7978515625	806.2835083007812	-119.4390029907227	-220.5206298828125	50.92633438110352	-149.623291015625	-160.8420867919922	420.5509643554688	-149.3384399414062	4.421261787414551	82.73233032226562	-207.4765319824219	-61.94750213623047	77.86187744140625	-232.5923156738281	-70.55665588378906	65.34996032714844	-137.4074859619141	-278.6123962402344	44.46521377563477	-190.7567138671875	-283.9935913085938	903.279052734375	-539.5261840820312	nan	nan	nan	
347	3.46	-448.2571411132812	1056.98193359375	-193.2189483642578	-486.4069213867188	1051.491821289062	-350.5474853515625	-468.228515625	1122.745849609375	-283.9871520996094	-232.7484741210938	1307.697509765625	-322.3367309570312	-480.9433898925781	1266.986572265625	-291.2308044433594	-426.2565002441406	1531.964111328125	-307.8356018066406	-270.7809143066406	1435.728881835938	-320.7263793945312	-471.5544128417969	1396.422485351562	-222.2824554443359	-454.9161071777344	1492.094970703125	-404.5962524414062	-358.9509887695312	1496.856567382812	-488.3170776367188	-395.2922973632812	1373.478637695312	-566.218017578125	-391.08984375	1154.54931640625	-594.4342041015625	-445.2222290039062	1140.040771484375	-504.6282043457031	-373.8423156738281	887.1566162109375	-583.3302612304688	-375.2535095214844	1038.71484375	-601.5578002929688	-266.0065612792969	719.7413330078125	-525.0012817382812	-338.3589172363281	798.6085205078125	-583.9000854492188	-273.2926330566406	810.4362182617188	-557.1612548828125	-329.4808959960938	1514.275268554688	-143.2055969238281	-334.4739074707031	1442.222290039062	-69.83305358886719	-362.5668029785156	1175.005737304688	-35.96335601806641	-376.755859375	1144.123291015625	-130.5565032958984	-239.2648162841797	913.5213012695312	-71.02404022216797	-298.0978698730469	902.2339477539062	-0.8444330096244812	-347.360595703125	1100.502075195312	-19.85870742797852	-224.5076599121094	725.5035400390625	-77.59270477294922	-207.9012145996094	802.797607421875	-54.7645149230957	-259.7481384277344	801.7634887695312	-1.200345754623413	-359.0530700683594	1708.118896484375	-231.7645568847656	-184.2908020019531	1718.823608398438	-351.1751098632812	-185.2869873046875	1715.85595703125	-252.2619323730469	-365.4837036132812	1717.441162109375	-376.2138977050781	-422.4473571777344	947.3246459960938	-472.0452575683594	-308.8628845214844	959.360107421875	-118.2258911132812	-233.3955535888672	986.269775390625	-215.4691314697266	-292.4228515625	992.9436645507812	-442.3965759277344	-341.0171508789062	502.7989196777344	-427.3283996582031	-378.9529724121094	639.573486328125	-460.4731750488281	-515.7821044921875	39.50841522216797	-387.7246398925781	-451.8876037597656	274.0257263183594	-419.4232482910156	-295.1678161621094	37.86890029907227	-326.0841979980469	-354.1723327636719	45.87371826171875	-308.24755859375	-390.8294982910156	36.1485481262207	-408.2043151855469	-584.8306884765625	52.57133865356445	-333.6217956542969	-164.2519836425781	550.556884765625	-157.9026489257812	-247.3137817382812	807.3572387695312	-119.9502944946289	-241.8045501708984	52.47367095947266	-149.1921539306641	-171.6884155273438	420.4663696289062	-149.4593200683594	-16.0962085723877	79.50511932373047	-206.1746978759766	-82.45436096191406	75.90153503417969	-231.5047912597656	-91.67243194580078	63.94258117675781	-136.3791198730469	-299.8943786621094	47.11661148071289	-190.5852813720703	-297.3840942382812	902.72900390625	-541.4257202148438	nan	nan	nan	
348	3.47	-454.4588623046875	1058.286743164062	-193.5255126953125	-492.41796875	1052.605346679688	-350.9087219238281	-474.4416198730469	1123.749877929688	-284.3111877441406	-239.1109313964844	1309.0126953125	-322.9344177246094	-487.2442932128906	1268.09228515625	-291.13330078125	-432.7853088378906	1533.0986328125	-307.7396850585938	-277.2731323242188	1437.000854492188	-321.2179870605469	-477.7658081054688	1397.482543945312	-222.0876312255859	-461.6797790527344	1493.22900390625	-404.3965454101562	-366.0071411132812	1498.122802734375	-488.5136413574219	-403.1483154296875	1374.812622070312	-566.2491455078125	-400.7608947753906	1155.967041015625	-594.43310546875	-454.1373596191406	1141.893798828125	-504.0923767089844	-387.978515625	888.3292846679688	-584.3484497070312	-386.700439453125	1039.943969726562	-602.0053100585938	-282.8597412109375	718.5606689453125	-527.68603515625	-354.1306457519531	799.08544921875	-585.6206665039062	-288.7040710449219	809.4994506835938	-559.4669189453125	-335.5612182617188	1515.435668945312	-143.4718780517578	-340.0334167480469	1443.26708984375	-70.10026550292969	-366.949951171875	1175.7822265625	-36.68198394775391	-381.5573120117188	1145.077514648438	-131.2855529785156	-242.9801788330078	914.8140258789062	-72.84822845458984	-301.4055480957031	903.1682739257812	-2.510381460189819	-351.3604431152344	1101.266479492188	-20.82771873474121	-227.5367279052734	726.8616333007812	-79.96408843994141	-211.0815582275391	804.1954345703125	-57.10140609741211	-262.7147216796875	802.82470703125	-3.273758888244629	-365.6570739746094	1709.283813476562	-231.8927001953125	-191.0602111816406	1720.128295898438	-351.4866943359375	-191.9130554199219	1717.124877929688	-252.5899963378906	-372.2581481933594	1718.717895507812	-376.3334350585938	-428.2361145019531	948.2813110351562	-472.259033203125	-315.1954650878906	960.6040649414062	-118.3358535766602	-239.6230163574219	987.5487670898438	-215.5184478759766	-298.3604736328125	994.0850830078125	-442.5366516113281	-345.8661804199219	504.1272277832031	-426.5874938964844	-384.1297912597656	640.6158447265625	-460.161865234375	-515.8110961914062	39.27113723754883	-387.8046569824219	-454.5740966796875	274.5586242675781	-419.093017578125	-295.2785949707031	37.91506958007812	-326.1518859863281	-354.2822570800781	45.83221817016602	-308.1925048828125	-390.8952941894531	36.21744918823242	-408.182373046875	-584.9308471679688	51.89322662353516	-333.6523132324219	-172.5535736083984	550.5715942382812	-158.3048248291016	-253.8934478759766	808.281982421875	-120.428955078125	-263.3973693847656	54.18246841430664	-148.8046722412109	-182.9726715087891	420.2640380859375	-149.4835357666016	-36.92502212524414	76.47917175292969	-204.4402923583984	-103.1964111328125	74.07879638671875	-230.1269683837891	-113.2171020507812	62.73998260498047	-135.0483856201172	-321.4032897949219	49.91670227050781	-190.5888671875	-310.7872619628906	902.2488403320312	-543.1945190429688	nan	nan	nan	
349	3.48	-460.617919921875	1059.522583007812	-193.8036956787109	-498.35205078125	1053.657104492188	-351.2560424804688	-480.599365234375	1124.691772460938	-284.6108703613281	-245.4327850341797	1310.266479492188	-323.477783203125	-493.5190734863281	1269.132690429688	-291.0069580078125	-439.2712707519531	1534.166748046875	-307.5942077636719	-283.7251586914062	1438.207397460938	-321.6563720703125	-483.930908203125	1398.472900390625	-221.8500366210938	-468.4039306640625	1494.297973632812	-404.1432189941406	-373.0426940917969	1499.316528320312	-488.6539916992188	-410.97705078125	1376.09228515625	-566.2213745117188	-410.3940734863281	1157.353637695312	-594.3956909179688	-463.0885925292969	1143.704711914062	-503.5703125	-402.0064086914062	889.56494140625	-585.2876586914062	-398.0873718261719	1041.177368164062	-602.3905029296875	-299.682861328125	717.5453491210938	-530.1627807617188	-369.7963256835938	799.6652221679688	-587.2012329101562	-304.0646057128906	808.7062377929688	-561.6002807617188	-341.5906066894531	1516.541748046875	-143.6834106445312	-345.55712890625	1444.248779296875	-70.32627105712891	-371.2532958984375	1176.501586914062	-37.35408020019531	-386.2822875976562	1145.967163085938	-131.9624481201172	-246.5606689453125	916.0840454101562	-74.65061950683594	-304.5505676269531	904.0645751953125	-4.158579349517822	-355.2628479003906	1101.97998046875	-21.75515937805176	-230.3832855224609	728.2140502929688	-82.34996032714844	-214.0758972167969	805.5882568359375	-59.43992233276367	-265.4642028808594	803.8677978515625	-5.335952758789062	-372.2207336425781	1710.383544921875	-231.9784698486328	-197.7881164550781	1721.37451171875	-351.7466430664062	-198.5009307861328	1718.333862304688	-252.8672027587891	-378.9893188476562	1719.935791015625	-376.4154357910156	-433.9393615722656	949.1920776367188	-472.4681396484375	-321.5401306152344	961.7387084960938	-118.3774032592773	-245.7739715576172	988.7431030273438	-215.4581298828125	-304.1741333007812	995.1790161132812	-442.579345703125	-350.633056640625	505.4034118652344	-425.8798828125	-389.1734313964844	641.620849609375	-459.8753356933594	-515.8477172851562	39.03972625732422	-387.9107055664062	-457.2184753417969	275.0820617675781	-418.8095092773438	-295.4069213867188	37.97377777099609	-326.2288513183594	-354.3912048339844	45.80525970458984	-308.1511840820312	-390.9626159667969	36.27630615234375	-408.1841735839844	-585.0336303710938	51.26072311401367	-333.7257995605469	-181.2037353515625	550.3340454101562	-158.6302185058594	-260.5608215332031	809.0347900390625	-120.8594818115234	-285.24365234375	56.03968048095703	-148.4674987792969	-194.6842498779297	419.9410705566406	-149.4126129150391	-58.00460433959961	73.65975189208984	-202.3011169433594	-124.1238403320312	72.38631439208984	-228.4963684082031	-135.1419525146484	61.73930358886719	-133.4362030029297	-343.0880432128906	52.83969116210938	-190.7662963867188	-324.1797790527344	901.8527221679688	-544.8214111328125	nan	nan	nan	
